<?xml version="1.0" standalone="no"?>
<!DOCTYPE svg PUBLIC "-//W3C//DTD SVG 20010904//EN"
 "http://www.w3.org/TR/2001/REC-SVG-20010904/DTD/svg10.dtd">
<svg version="1.0" xmlns="http://www.w3.org/2000/svg"
 width="920.000000pt" height="911.000000pt" viewBox="0 0 920.000000 911.000000"
 preserveAspectRatio="xMidYMid meet">

<g transform="translate(0.000000,911.000000) scale(0.100000,-0.100000)"
fill="#000000" stroke="none">
<path d="M2841 9089 c-112 -29 -157 -55 -249 -143 -63 -60 -91 -97 -118 -152
-35 -71 -37 -77 -45 -233 l-8 -161 -89 -157 c-49 -87 -162 -288 -252 -448 -89
-159 -193 -344 -230 -410 -64 -113 -268 -478 -422 -755 l-70 -126 -92 -23
c-140 -36 -263 -86 -338 -137 -140 -96 -264 -262 -314 -420 l-25 -81 -92 -7
c-232 -17 -387 -97 -453 -232 -23 -48 -28 -72 -35 -202 -11 -205 -11 -594 1
-734 16 -198 63 -277 204 -344 71 -34 183 -63 241 -64 45 0 75 -11 75 -26 0
-7 36 -139 79 -291 44 -153 121 -424 171 -603 50 -179 120 -426 155 -550 35
-124 100 -358 145 -520 45 -162 99 -359 121 -437 39 -142 103 -312 152 -410
74 -146 226 -334 352 -436 123 -100 309 -190 439 -214 45 -8 189 -18 321 -23
265 -9 2920 -8 2929 1 4 3 -11 44 -33 90 -21 46 -60 143 -86 214 -26 72 -51
133 -54 138 -4 4 -174 12 -377 18 -203 6 -370 12 -371 13 -1 0 -5 150 -9 333
l-7 331 332 4 c303 3 334 5 345 20 7 10 19 60 25 110 15 111 49 316 57 341 5
16 -17 17 -375 17 l-381 0 0 338 0 337 527 -3 528 -2 70 92 c92 122 355 385
473 473 51 38 95 78 97 89 3 12 23 131 45 266 22 135 43 253 46 262 4 14 23
17 132 21 202 6 1040 2 1047 -5 4 -4 -3 -41 -14 -82 -26 -93 -26 -85 2 -95 36
-14 374 -44 413 -37 39 8 51 28 79 128 8 32 24 66 35 76 11 10 56 29 100 41
132 39 246 118 293 206 22 39 22 48 25 569 l3 528 -42 54 c-93 121 -196 171
-410 199 -56 7 -107 19 -114 26 -7 8 -28 51 -48 97 -56 132 -95 190 -197 292
-74 75 -113 105 -175 137 -83 42 -171 73 -265 93 -30 6 -62 14 -71 16 -10 3
-63 87 -119 187 -57 100 -131 232 -165 292 -35 61 -136 241 -225 400 -89 160
-195 349 -235 420 -40 72 -134 239 -209 373 l-136 243 0 123 c0 184 -41 294
-151 406 -208 211 -572 210 -784 -4 -111 -111 -165 -238 -165 -385 1 -154 55
-268 203 -428 133 -142 194 -243 707 -1158 169 -301 232 -414 393 -700 53 -93
99 -178 102 -187 4 -10 -9 -62 -31 -123 l-38 -105 -396 -2 c-217 -2 -1115 -4
-1995 -6 l-1600 -2 -42 111 -42 112 76 136 c139 248 254 454 331 591 147 265
496 877 577 1015 118 198 165 262 236 320 152 122 225 325 185 515 -23 110
-84 226 -157 299 -72 72 -189 134 -294 156 -91 19 -134 18 -224 -6z m-1295
-3109 c81 -42 141 -110 174 -197 32 -85 26 -213 -14 -301 -36 -79 -113 -152
-194 -183 -80 -32 -204 -32 -284 0 -110 43 -198 148 -234 280 -17 60 -17 67
-1 129 26 100 107 216 184 263 61 38 112 49 210 46 82 -3 99 -7 159 -37z
m5621 6 c76 -35 144 -104 181 -184 23 -49 27 -70 27 -152 0 -84 -3 -102 -28
-152 -121 -247 -426 -302 -614 -111 -62 63 -93 138 -100 239 -12 164 83 311
242 374 77 31 209 24 292 -14z m-4971 -1748 c13 -15 117 -615 112 -650 -2 -14
-13 -25 -28 -29 -14 -4 -260 -7 -547 -8 l-522 -1 -15 53 c-34 120 -165 604
-168 622 -3 19 4 20 112 26 63 4 324 5 579 3 360 -3 468 -6 477 -16z m3533 6
c40 -8 43 28 -31 -396 l-52 -298 -594 0 -593 0 3 333 c2 261 6 337 16 350 10
12 36 17 100 20 143 6 1114 -1 1151 -9z m-1749 -46 c0 -29 3 -187 7 -350 l6
-298 -595 0 -595 0 -42 248 c-52 308 -70 435 -64 445 2 4 292 7 644 7 l639 0
0 -52z m-1521 -1463 c29 -170 54 -320 58 -332 l5 -23 -490 0 c-459 0 -491 1
-496 18 -3 9 -30 105 -60 212 -30 107 -69 246 -87 307 -18 62 -29 116 -25 120
8 9 1027 21 1037 13 4 -3 30 -144 58 -315z m1531 -20 l0 -335 -497 0 -498 0
-52 319 c-29 175 -56 326 -59 335 -6 15 42 16 550 16 l556 0 0 -335z m-1390
-829 c0 -2 20 -127 45 -278 24 -150 46 -297 47 -327 3 -52 2 -54 -27 -63 -41
-13 -316 0 -394 18 -202 46 -407 236 -526 487 -25 52 -45 101 -45 109 0 21 24
39 63 48 33 8 837 13 837 6z m1390 -337 l0 -340 -382 3 c-279 2 -389 6 -404
15 -25 14 -27 24 -80 386 -20 136 -34 251 -30 254 16 16 117 21 494 22 l402 1
0 -341z"/>
<path d="M7190 3589 c-262 -30 -634 -176 -835 -326 -108 -82 -260 -226 -354
-337 -179 -211 -309 -483 -373 -776 -20 -93 -22 -133 -22 -350 0 -216 2 -257
22 -347 56 -258 159 -493 311 -708 77 -110 305 -335 421 -418 177 -125 440
-243 650 -291 173 -40 509 -45 705 -11 256 45 503 147 709 292 107 76 367 336
443 443 164 231 258 453 309 735 25 135 25 439 0 575 -42 232 -89 378 -177
550 -84 164 -175 286 -324 436 -217 217 -407 340 -671 434 -265 94 -554 129
-814 99z m295 -805 c65 -23 140 -95 154 -151 17 -62 30 -222 31 -358 0 -66 3
-143 6 -172 l7 -52 266 -3 c240 -3 270 -5 306 -23 162 -80 193 -297 60 -414
-72 -63 -84 -65 -372 -69 l-261 -4 -6 -71 c-3 -40 -8 -156 -11 -259 -7 -223
-17 -266 -77 -325 -53 -52 -113 -75 -198 -76 -78 -1 -108 13 -185 86 l-55 52
-7 296 -6 296 -296 6 -296 7 -58 62 c-79 86 -94 129 -79 222 15 86 53 152 103
178 59 30 139 38 392 38 l237 0 0 244 c0 134 5 267 10 297 30 155 184 244 335
193z"/>
</g>
</svg>
