<?xml version="1.0" standalone="no"?>
<!DOCTYPE svg PUBLIC "-//W3C//DTD SVG 20010904//EN"
 "http://www.w3.org/TR/2001/REC-SVG-20010904/DTD/svg10.dtd">
<svg version="1.0" xmlns="http://www.w3.org/2000/svg"
 width="512.000000pt" height="512.000000pt" viewBox="0 0 512.000000 512.000000"
 preserveAspectRatio="xMidYMid meet">

<g transform="translate(0.000000,512.000000) scale(0.100000,-0.100000)"
fill="#000000" stroke="none">
<path d="M1540 4929 c-913 -54 -1611 -859 -1532 -1767 30 -342 137 -616 349
-892 40 -51 449 -468 1032 -1051 1089 -1090 1020 -1029 1171 -1029 128 0 161
22 431 289 l229 226 -7 121 -6 122 -116 5 c-186 7 -312 61 -435 183 -116 117
-174 248 -183 416 -7 127 8 201 62 313 107 221 303 347 565 362 l107 6 6 111
c10 185 68 319 191 441 251 248 645 246 896 -5 126 -126 190 -281 190 -462 l0
-88 59 0 c32 0 85 -2 117 -5 l59 -6 42 54 c423 545 468 1293 111 1874 -221
362 -588 634 -993 737 -222 56 -504 63 -740 17 -171 -33 -370 -112 -527 -209
l-58 -35 -57 35 c-288 176 -616 257 -963 237z"/>
<path d="M3760 2639 c-52 -16 -134 -75 -163 -117 -59 -85 -61 -97 -65 -364
l-4 -246 -246 -4 c-243 -3 -248 -3 -304 -30 -66 -31 -128 -91 -160 -156 -19
-39 -23 -63 -23 -137 0 -78 4 -97 27 -140 35 -68 102 -128 172 -154 52 -19 76
-21 296 -21 l238 0 4 -253 c3 -233 5 -255 25 -299 28 -61 94 -132 147 -157
167 -82 356 -17 435 149 26 54 26 59 29 307 l3 252 257 3 257 3 51 27 c107 56
175 167 175 282 0 138 -66 238 -197 298 -46 21 -65 23 -296 26 l-247 4 -3 251
c-3 244 -4 254 -27 302 -32 63 -93 125 -155 155 -56 26 -169 36 -226 19z"/>
</g>
</svg>
