<?xml version="1.0" standalone="no"?>
<!DOCTYPE svg PUBLIC "-//W3C//DTD SVG 20010904//EN"
 "http://www.w3.org/TR/2001/REC-SVG-20010904/DTD/svg10.dtd">
<svg version="1.0" xmlns="http://www.w3.org/2000/svg"
 width="1024.000000pt" height="1024.000000pt" viewBox="0 0 1024.000000 1024.000000"
 preserveAspectRatio="xMidYMid meet">

<g transform="translate(0.000000,1024.000000) scale(0.100000,-0.100000)"
fill="#000000" stroke="none">
<path d="M2290 8909 c-1230 -136 -2170 -1088 -2280 -2309 -56 -633 85 -1244
404 -1748 183 -289 179 -284 1976 -1962 905 -844 1670 -1556 1700 -1582 155
-135 390 -195 600 -154 108 21 243 86 333 161 l68 57 -18 26 c-434 650 -608
1469 -478 2248 182 1082 910 1983 1935 2392 411 164 892 242 1328 213 427 -28
769 -114 1164 -294 l57 -26 8 57 c4 31 8 188 8 347 0 227 -4 315 -18 405 -83
535 -315 1010 -688 1404 -325 343 -808 613 -1280 715 -215 47 -305 56 -554 56
-261 -1 -379 -15 -610 -72 -186 -46 -359 -111 -530 -198 -263 -133 -448 -270
-707 -523 l-158 -155 -163 160 c-182 179 -301 278 -462 382 -311 202 -652 330
-1030 387 -121 18 -488 26 -605 13z"/>
<path d="M7452 5679 c-202 -18 -465 -76 -648 -144 -125 -46 -376 -168 -474
-231 -142 -90 -305 -219 -424 -334 -227 -220 -384 -435 -521 -715 -167 -338
-247 -659 -262 -1035 -22 -590 156 -1151 519 -1638 93 -125 365 -396 491 -491
364 -272 768 -437 1232 -503 118 -17 511 -16 635 0 579 80 1097 337 1491 739
130 132 157 163 243 277 153 204 294 476 375 722 82 249 118 452 128 719 25
719 -253 1410 -773 1916 -206 200 -398 336 -649 459 -190 94 -311 139 -489
185 -298 76 -583 100 -874 74z m1320 -1715 c137 -46 215 -204 173 -350 -17
-59 -17 -60 -698 -743 -755 -756 -725 -731 -852 -731 -122 0 -123 1 -567 446
-391 393 -397 400 -413 458 -66 228 143 425 371 350 43 -15 83 -51 329 -295
l280 -279 545 546 c300 300 560 554 579 566 78 49 170 61 253 32z"/>
</g>
</svg>
