<?xml version="1.0" standalone="no"?>
<!DOCTYPE svg PUBLIC "-//W3C//DTD SVG 20010904//EN"
 "http://www.w3.org/TR/2001/REC-SVG-20010904/DTD/svg10.dtd">
<svg version="1.0" xmlns="http://www.w3.org/2000/svg"
 width="1024.000000pt" height="1024.000000pt" viewBox="0 0 1024.000000 1024.000000"
 preserveAspectRatio="xMidYMid meet">

<g transform="translate(0.000000,1024.000000) scale(0.100000,-0.100000)"
fill="#000000" stroke="none">
<path d="M2290 8909 c-1230 -136 -2170 -1088 -2280 -2309 -56 -633 85 -1244
404 -1748 183 -289 179 -284 1976 -1962 905 -844 1670 -1556 1700 -1582 155
-135 390 -195 600 -154 108 21 243 86 333 161 l68 57 -18 26 c-434 650 -608
1469 -478 2248 182 1082 910 1983 1935 2392 411 164 892 242 1328 213 427 -28
769 -114 1164 -294 l57 -26 8 57 c4 31 8 188 8 347 0 227 -4 315 -18 405 -83
535 -315 1010 -688 1404 -325 343 -808 613 -1280 715 -215 47 -305 56 -554 56
-261 -1 -379 -15 -610 -72 -186 -46 -359 -111 -530 -198 -263 -133 -448 -270
-707 -523 l-158 -155 -163 160 c-182 179 -301 278 -462 382 -311 202 -652 330
-1030 387 -121 18 -488 26 -605 13z"/>
<path d="M7452 5679 c-202 -18 -465 -76 -648 -144 -125 -46 -376 -168 -474
-231 -142 -90 -305 -219 -424 -334 -227 -220 -384 -435 -521 -715 -167 -338
-247 -659 -262 -1035 -22 -590 156 -1151 519 -1638 93 -125 365 -396 491 -491
364 -272 768 -437 1232 -503 118 -17 511 -16 635 0 579 80 1097 337 1491 739
130 132 157 163 243 277 153 204 294 476 375 722 82 249 118 452 128 719 25
719 -253 1410 -773 1916 -206 200 -398 336 -649 459 -190 94 -311 139 -489
185 -298 76 -583 100 -874 74z m321 -1145 c57 -19 131 -83 160 -138 22 -40 22
-50 27 -511 l5 -470 470 -5 c458 -5 471 -6 510 -27 48 -25 106 -84 131 -133
28 -52 26 -191 -3 -245 -29 -55 -88 -110 -148 -137 -50 -23 -55 -23 -507 -26
l-458 -3 0 -457 c0 -438 -1 -459 -21 -502 -25 -55 -80 -114 -134 -143 -57 -31
-193 -31 -250 0 -54 29 -109 88 -134 143 -20 43 -21 64 -21 502 l0 457 -457 3
c-453 3 -458 3 -508 26 -60 27 -119 82 -148 137 -29 54 -31 193 -3 245 25 49
83 108 131 133 39 21 52 22 510 27 l470 5 5 470 c5 461 5 471 27 511 28 53
103 119 156 138 56 19 133 20 190 0z"/>
</g>
</svg>
