<?xml version="1.0" standalone="no"?>
<!DOCTYPE svg PUBLIC "-//W3C//DTD SVG 20010904//EN"
 "http://www.w3.org/TR/2001/REC-SVG-20010904/DTD/svg10.dtd">
<svg version="1.0" xmlns="http://www.w3.org/2000/svg"
 width="512.000000pt" height="512.000000pt" viewBox="0 0 512.000000 512.000000"
 preserveAspectRatio="xMidYMid meet">

<g transform="translate(0.000000,512.000000) scale(0.100000,-0.100000)"
fill="#000000" stroke="none">
<path d="M1095 4450 c-293 -46 -552 -181 -750 -391 -179 -191 -292 -427 -331
-689 -20 -137 -14 -372 11 -490 58 -265 177 -488 355 -670 41 -42 434 -411
873 -821 909 -848 866 -814 1021 -814 83 0 98 3 157 32 35 18 75 43 88 57 l23
25 -36 60 c-55 90 -121 235 -156 341 -97 295 -95 667 5 965 181 542 630 934
1197 1047 91 18 146 22 288 22 234 0 391 -30 598 -115 53 -21 98 -36 101 -33
14 14 12 303 -3 402 -80 526 -476 943 -1006 1058 -119 26 -381 26 -500 0 -254
-55 -455 -164 -650 -353 l-106 -102 -90 90 c-185 186 -394 303 -644 360 -99
23 -350 33 -445 19z"/>
<path d="M3595 2820 c-600 -120 -1035 -648 -1035 -1255 0 -615 453 -1155 1058
-1260 111 -20 335 -19 448 0 251 44 488 169 675 355 505 503 505 1307 -1 1810
-186 185 -404 301 -662 351 -131 25 -355 25 -483 -1z m-122 -701 c12 -6 100
-88 194 -182 l173 -172 177 177 c113 112 188 179 206 183 79 20 156 -22 179
-97 21 -72 5 -96 -187 -288 l-175 -175 179 -180 c150 -150 181 -186 186 -217
9 -50 -9 -101 -51 -138 -28 -24 -44 -30 -80 -30 -25 0 -55 5 -67 11 -12 6
-100 88 -194 182 l-173 172 -172 -172 c-95 -94 -183 -176 -195 -182 -12 -6
-42 -11 -67 -11 -82 0 -147 83 -131 168 5 31 36 67 186 217 l179 180 -175 175
c-183 183 -203 211 -191 275 8 39 49 93 80 105 30 13 94 12 119 -1z"/>
</g>
</svg>
