<?xml version="1.0" standalone="no"?>
<!DOCTYPE svg PUBLIC "-//W3C//DTD SVG 20010904//EN"
 "http://www.w3.org/TR/2001/REC-SVG-20010904/DTD/svg10.dtd">
<svg version="1.0" xmlns="http://www.w3.org/2000/svg"
 width="512.000000pt" height="512.000000pt" viewBox="0 0 512.000000 512.000000"
 preserveAspectRatio="xMidYMid meet">

<g transform="translate(0.000000,512.000000) scale(0.100000,-0.100000)"
fill="#000000" stroke="none">
<path d="M1375 4374 c-301 -55 -562 -220 -739 -467 -66 -92 -142 -259 -172
-374 -36 -136 -43 -330 -19 -473 28 -171 89 -323 188 -470 67 -99 1747 -1787
1822 -1831 39 -22 62 -29 105 -29 43 0 66 7 105 29 75 44 1755 1732 1822 1831
138 205 203 414 203 655 0 368 -163 698 -453 916 -400 302 -967 305 -1367 9
-42 -32 -130 -111 -194 -176 l-116 -119 -114 117 c-178 182 -316 275 -502 337
-178 60 -392 77 -569 45z"/>
</g>
</svg>
