<?xml version="1.0" standalone="no"?>
<!DOCTYPE svg PUBLIC "-//W3C//DTD SVG 20010904//EN"
 "http://www.w3.org/TR/2001/REC-SVG-20010904/DTD/svg10.dtd">
<svg version="1.0" xmlns="http://www.w3.org/2000/svg"
 width="512.000000pt" height="512.000000pt" viewBox="0 0 512.000000 512.000000"
 preserveAspectRatio="xMidYMid meet">

<g transform="translate(0.000000,512.000000) scale(0.100000,-0.100000)"
fill="#000000" stroke="none">
<path d="M1362 4470 c-206 -29 -417 -117 -579 -241 -79 -61 -213 -206 -267
-289 -84 -127 -147 -282 -177 -435 -22 -111 -17 -359 9 -473 40 -175 124 -349
233 -482 87 -107 1879 -1880 1916 -1896 41 -18 85 -18 126 0 34 15 1817 1776
1907 1884 292 351 352 851 150 1267 -102 210 -275 396 -479 514 -320 186 -728
210 -1071 63 -167 -71 -241 -123 -435 -306 l-135 -128 -135 128 c-74 70 -158
145 -187 166 -125 94 -297 173 -455 208 -101 23 -325 34 -421 20z m313 -325
c48 -9 121 -28 161 -44 145 -57 206 -102 425 -318 114 -111 219 -207 234 -213
39 -15 102 -12 138 6 18 9 122 105 232 214 147 144 219 208 272 239 348 206
772 164 1061 -105 266 -246 352 -619 220 -954 -63 -159 -43 -137 -977 -1068
-482 -479 -879 -871 -883 -870 -4 2 -392 385 -863 851 -920 913 -927 921 -994
1090 -250 629 299 1289 974 1172z"/>
</g>
</svg>
